<?xml version="1.0" standalone="no"?><!DOCTYPE svg PUBLIC "-//W3C//DTD SVG 1.1//EN" "http://www.w3.org/Graphics/SVG/1.1/DTD/svg11.dtd"><svg t="1695397854102" class="icon" viewBox="0 0 1070 1024" version="1.1" xmlns="http://www.w3.org/2000/svg" p-id="4634" xmlns:xlink="http://www.w3.org/1999/xlink" width="66.875" height="64"><path d="M469.333333 404.138667L184.149333 268.373333l285.098667-135.765333 285.141333 135.765333-285.141333 135.765334z m-42.666666 466.901333l-298.666667-142.208V336.128l298.666667 142.208v392.704z m383.914666-231.082667h85.333334V277.333333h-1.28a42.666667 42.666667 0 0 0 1.28-9.130666 42.666667 42.666667 0 0 0-24.32-38.528l-384-182.869334a42.453333 42.453333 0 0 0-36.608 0l-384 182.869334a42.666667 42.666667 0 0 0-24.32 38.528v487.552a42.666667 42.666667 0 0 0 24.32 38.528l384 182.826666a42.496 42.496 0 0 0 41.088-2.432 42.666667 42.666667 0 0 0 19.882666-36.053333V478.293333l298.666667-142.208v303.829334z" fill="#1768E4" p-id="4635"></path><path d="M929.749333 673.792L725.333333 878.293333l-97.834666-97.834666-60.330667 60.330666 128 128a42.496 42.496 0 0 0 60.288 0l234.666667-234.666666-60.330667-60.330667z" fill="#8BB3F1" p-id="4636"></path></svg>