<?xml version="1.0" standalone="no"?><!DOCTYPE svg PUBLIC "-//W3C//DTD SVG 1.1//EN" "http://www.w3.org/Graphics/SVG/1.1/DTD/svg11.dtd"><svg t="1695397883729" class="icon" viewBox="0 0 1126 1024" version="1.1" xmlns="http://www.w3.org/2000/svg" p-id="5075" xmlns:xlink="http://www.w3.org/1999/xlink" width="70.375" height="64"><path d="M448 85.333333h-384a21.333333 21.333333 0 0 0-21.333333 21.333334v810.581333a21.333333 21.333333 0 0 0 21.333333 21.333333h896a21.333333 21.333333 0 0 0 21.333333-21.333333V234.666667a21.333333 21.333333 0 0 0-21.333333-21.333334H519.082667L448 85.333333z m-3.498667 169.429334A85.290667 85.290667 0 0 0 519.082667 298.666667H896v555.178666H128V170.666667h269.781333l46.72 84.096z" fill="#1768E4" p-id="5076"></path><path d="M469.333333 746.666667a42.496 42.496 0 0 1-30.165333-12.501334l-149.333333-149.333333 60.330666-60.330667L469.333333 643.669333l247.168-247.168 60.330667 60.330667-277.333333 277.333333A42.496 42.496 0 0 1 469.333333 746.666667" fill="#8BB3F1" p-id="5077"></path></svg>