<?xml version="1.0" standalone="no"?><!DOCTYPE svg PUBLIC "-//W3C//DTD SVG 1.1//EN" "http://www.w3.org/Graphics/SVG/1.1/DTD/svg11.dtd"><svg t="1695736208666" class="icon" viewBox="0 0 1126 1024" version="1.1" xmlns="http://www.w3.org/2000/svg" p-id="5404" xmlns:xlink="http://www.w3.org/1999/xlink" width="70.375" height="64"><path d="M896 682.666667H128V170.666667h768v512zM85.333333 85.333333a42.666667 42.666667 0 0 0-42.666666 42.666667v640a42.666667 42.666667 0 0 0 42.666666 42.666667h256v42.666666H213.333333v85.333334h597.333334v-85.333334h-128v-42.666666h256a42.666667 42.666667 0 0 0 42.666666-42.666667V128a42.666667 42.666667 0 0 0-42.666666-42.666667H85.333333z" fill="#1768E4" p-id="5405"></path><path d="M213.333333 554.666667V298.666667h85.333334v256H213.333333z m170.666667 0V298.666667h85.333333v256H384z m341.333333 0V298.666667h85.333334v256h-85.333334z m-170.666666 0V298.666667h85.333333v256h-85.333333z" fill="#8BB3F1" p-id="5406"></path></svg>