<?xml version="1.0" standalone="no"?><!DOCTYPE svg PUBLIC "-//W3C//DTD SVG 1.1//EN" "http://www.w3.org/Graphics/SVG/1.1/DTD/svg11.dtd"><svg t="1695397943421" class="icon" viewBox="0 0 1024 1024" version="1.1" xmlns="http://www.w3.org/2000/svg" p-id="6251" xmlns:xlink="http://www.w3.org/1999/xlink" width="64" height="64"><path d="M836.437333 836.437333c-44.672 44.629333-121.6 54.485333-210.645333 29.866667a836.608 836.608 0 0 0 132.266667-108.202667l-60.288-60.330666c-168.661333 168.618667-390.144 232.106667-483.669334 138.666666-44.8-44.8-54.570667-122.026667-29.653333-211.413333a826.368 826.368 0 0 0 107.946667 133.077333l60.373333-60.330666c-85.845333-85.845333-146.517333-185.685333-170.837333-281.088-22.314667-87.594667-10.88-159.530667 32.170666-202.581334 44.714667-44.714667 121.770667-54.570667 210.986667-29.824a834.858667 834.858667 0 0 0-132.693333 108.16l60.373333 60.330667c168.618667-168.661333 390.101333-232.192 483.669333-138.666667 44.8 44.8 54.528 122.026667 29.653334 211.413334a827.690667 827.690667 0 0 0-107.989334-133.12l-60.330666 60.373333c85.802667 85.845333 146.474667 185.642667 170.837333 281.088 22.314667 87.552 10.88 159.488-32.170667 202.581333m84.181334-311.253333c66.730667-151.381333 58.368-289.194667-23.893334-371.413333-84.650667-84.693333-226.090667-88.362667-371.84-24.021334-151.253333-66.56-288.981333-58.154667-371.114666 24.021334C88.533333 218.965333 69.12 319.829333 99.242667 437.76c7.424 29.056 17.834667 58.368 30.677333 87.552-66.730667 151.381333-58.368 289.28 23.850667 371.456 46.421333 46.421333 109.824 68.608 181.76 68.608 59.306667 0 124.416-15.317333 190.336-44.458667 67.242667 29.525333 131.754667 44.373333 189.909333 44.373334 72.661333 0 135.381333-22.912 180.992-68.522667 65.194667-65.237333 84.565333-166.058667 54.528-283.989333a563.712 563.712 0 0 0-30.72-87.594667" fill="#1768E4" p-id="6252"></path><path d="M418.602667 322.56a96 96 0 1 1-192 0 96 96 0 0 1 192 0z m405.333333 405.333333a96 96 0 1 1-192 0 96 96 0 0 1 192 0z m-405.333333 0a96 96 0 1 1-192 0 96 96 0 0 1 192 0z m405.333333-405.333333a96 96 0 1 1-192 0 96 96 0 0 1 192 0z" fill="#8BB3F1" p-id="6253"></path></svg>