<?xml version="1.0" standalone="no"?><!DOCTYPE svg PUBLIC "-//W3C//DTD SVG 1.1//EN" "http://www.w3.org/Graphics/SVG/1.1/DTD/svg11.dtd"><svg t="1695397869382" class="icon" viewBox="0 0 1024 1024" version="1.1" xmlns="http://www.w3.org/2000/svg" p-id="4928" xmlns:xlink="http://www.w3.org/1999/xlink" width="64" height="64"><path d="M512 128c235.221333 0 426.581333 191.402667 426.581333 426.666667 0 235.221333-191.36 426.581333-426.624 426.581333C276.736 981.248 85.333333 789.888 85.333333 554.666667c0-58.325333 11.562667-114.944 34.432-168.149334l78.421334 33.664A338.944 338.944 0 0 0 170.666667 554.624c0 188.16 153.130667 341.333333 341.333333 341.333333 188.16 0 341.248-153.173333 341.248-341.333333S700.16 213.333333 512 213.333333a339.370667 339.370667 0 0 0-133.333333 27.050667l-33.28-78.549333A424.021333 424.021333 0 0 1 511.914667 128zM270.933333 468.053333l87.637334 31.488A163.114667 163.114667 0 0 0 512 717.568 163.114667 163.114667 0 0 0 674.816 554.666667a163.114667 163.114667 0 0 0-216.96-153.770667l-30.848-87.808A256.298667 256.298667 0 0 1 767.957333 554.666667c0 141.141333-114.858667 256-256 256a256.298667 256.298667 0 0 1-240.981333-342.613334z" fill="#1768E4" p-id="4929"></path><path d="M282.709333 385.706667l150.954667 150.954666c-0.085333 1.109333-0.341333 2.176-0.341333 3.328a64 64 0 1 0 64-64c-1.152 0-2.218667 0.256-3.328 0.341334L343.04 325.376l7.552-52.778667L163.328 85.333333l-15.104 105.557334L42.666667 205.994667l187.264 187.264 52.778666-7.552z" fill="#8BB3F1" p-id="4930"></path></svg>