<?xml version="1.0" standalone="no"?><!DOCTYPE svg PUBLIC "-//W3C//DTD SVG 1.1//EN" "http://www.w3.org/Graphics/SVG/1.1/DTD/svg11.dtd"><svg t="1695397805711" class="icon" viewBox="0 0 1024 1024" version="1.1" xmlns="http://www.w3.org/2000/svg" p-id="3593" xmlns:xlink="http://www.w3.org/1999/xlink" width="64" height="64"><path d="M256 870.954667l128-54.528v-120.576l-111.317333 47.36a42.752 42.752 0 0 1-33.365334 0L128 695.893333v120.576l128 54.528z m0-291.242667l-91.477333 38.954667L256 657.621333l91.477333-38.954666L256 579.712z m187.392-12.970667a42.666667 42.666667 0 0 1 25.941333 39.253334v238.634666c0 17.066667-10.24 32.554667-25.941333 39.253334l-170.666667 72.704a42.752 42.752 0 0 1-33.450666 0l-170.666667-72.704a42.624 42.624 0 0 1-25.941333-39.253334v-238.634666a42.666667 42.666667 0 0 1 25.984-39.253334l170.666666-72.661333a42.666667 42.666667 0 0 1 33.365334 0l170.666666 72.661333zM768 870.954667l128-54.528v-120.576l-111.274667 47.36a42.752 42.752 0 0 1-33.450666 0L640 695.893333v120.576l128 54.528z m0-291.242667l-91.477333 38.954667 91.477333 38.954666 91.477333-38.954666L768 579.712z m187.392-12.970667a42.666667 42.666667 0 0 1 25.941333 39.253334v238.634666c0 17.066667-10.24 32.554667-25.941333 39.253334l-170.666667 72.704a42.752 42.752 0 0 1-33.450666 0l-170.666667-72.704a42.624 42.624 0 0 1-25.941333-39.253334v-238.634666a42.666667 42.666667 0 0 1 25.941333-39.253334l170.666667-72.661333a42.666667 42.666667 0 0 1 33.450666 0l170.666667 72.661333z" fill="#1768E4" p-id="3594"></path><path d="M512 422.954667L384 368.426667V247.850667l111.274667 47.36a42.752 42.752 0 0 0 33.450666 0L640 247.893333v120.576l-128 54.528z m0-291.242667L603.477333 170.666667 512 209.621333 420.522667 170.666667 512 131.712z m213.333333 264.96V157.952a42.666667 42.666667 0 0 0-25.941333-39.253333l-170.666667-72.661334a42.666667 42.666667 0 0 0-33.450666 0l-170.666667 72.661334a42.666667 42.666667 0 0 0-25.941333 39.253333v238.634667c0 17.066667 10.24 32.554667 25.984 39.253333l170.666666 72.704a42.752 42.752 0 0 0 33.408 0l170.666667-72.704a42.624 42.624 0 0 0 25.941333-39.253333z" fill="#8BB3F1" p-id="3595"></path></svg>