<?xml version="1.0" standalone="no"?><!DOCTYPE svg PUBLIC "-//W3C//DTD SVG 1.1//EN" "http://www.w3.org/Graphics/SVG/1.1/DTD/svg11.dtd"><svg t="1695397813659" class="icon" viewBox="0 0 1024 1024" version="1.1" xmlns="http://www.w3.org/2000/svg" p-id="3740" xmlns:xlink="http://www.w3.org/1999/xlink" width="64" height="64"><path d="M213.333333 896V413.738667C284.501333 439.168 393.642667 469.333333 512 469.333333s227.498667-30.165333 298.666667-55.594666V896H213.333333zM810.666667 128v194.56C749.994667 346.453333 635.178667 384 512 384c-122.752 0-237.824-37.589333-298.666667-61.482667V128h597.333334z m42.666666-85.333333H170.666667a42.666667 42.666667 0 0 0-42.666667 42.666666v853.333334a42.666667 42.666667 0 0 0 42.666667 42.666666h682.666666a42.666667 42.666667 0 0 0 42.666667-42.666666V85.333333a42.666667 42.666667 0 0 0-42.666667-42.666666z" fill="#1768E4" p-id="3741"></path><path d="M554.666667 329.898667v193.536a85.333333 85.333333 0 1 1-85.333334 0V329.898667a85.333333 85.333333 0 1 1 85.333334 0z" fill="#8BB3F1" p-id="3742"></path></svg>