<?xml version="1.0" standalone="no"?><!DOCTYPE svg PUBLIC "-//W3C//DTD SVG 1.1//EN" "http://www.w3.org/Graphics/SVG/1.1/DTD/svg11.dtd"><svg t="1695397729925" class="icon" viewBox="0 0 1072 1024" version="1.1" xmlns="http://www.w3.org/2000/svg" p-id="2564" xmlns:xlink="http://www.w3.org/1999/xlink" width="67" height="64"><path d="M170.666667 170.666667v640h256v85.333333H128a42.666667 42.666667 0 0 1-42.666667-42.666667V128a42.666667 42.666667 0 0 1 42.666667-42.666667h682.666667a42.666667 42.666667 0 0 1 42.666666 42.666667v256h-85.333333V170.666667H170.666667z m85.333333 170.666666V256h426.666667v85.333333H256z m0 170.666667v-85.333333h213.333333v85.333333H256z" fill="#1768E4" p-id="2565"></path><path d="M746.666667 896c105.898667 0 192-86.101333 192-192 0-105.856-86.101333-192-192-192a192.213333 192.213333 0 0 0-192 192c0 105.898667 86.144 192 192 192z m0-469.333333c152.917333 0 277.333333 124.416 277.333333 277.333333S899.584 981.333333 746.666667 981.333333a277.674667 277.674667 0 0 1-277.333334-277.333333c0-152.917333 124.416-277.333333 277.333334-277.333333z m-110.634667 320h221.269333c16.384 0 26.88 17.792 18.688 32a149.205333 149.205333 0 0 1-258.602666 0 21.461333 21.461333 0 0 1 18.645333-32z m46.634667-85.333334a42.666667 42.666667 0 1 1-85.333334 0 42.666667 42.666667 0 0 1 85.333334 0z m213.333333 0a42.666667 42.666667 0 1 1-85.333333 0 42.666667 42.666667 0 0 1 85.333333 0z" fill="#8BB3F1" p-id="2566"></path></svg>