<?xml version="1.0" standalone="no"?><!DOCTYPE svg PUBLIC "-//W3C//DTD SVG 1.1//EN" "http://www.w3.org/Graphics/SVG/1.1/DTD/svg11.dtd"><svg t="1695397923332" class="icon" viewBox="0 0 1024 1024" version="1.1" xmlns="http://www.w3.org/2000/svg" p-id="5810" xmlns:xlink="http://www.w3.org/1999/xlink" width="64" height="64"><path d="M512 128c-211.754667 0-384 172.245333-384 384 0 211.712 172.245333 384 384 384 211.712 0 384-172.288 384-384 0-211.754667-172.288-384-384-384m0 853.333333C253.184 981.333333 42.666667 770.816 42.666667 512S253.184 42.666667 512 42.666667s469.333333 210.517333 469.333333 469.333333-210.517333 469.333333-469.333333 469.333333" fill="#1768E4" p-id="5811"></path><path d="M739.541333 629.674667c4.522667-37.418667 7.125333-76.629333 7.125334-117.674667 0-41.002667-2.602667-80.213333-7.125334-117.674667C835.669333 423.765333 896 469.376 896 512c0 42.666667-60.330667 88.234667-156.458667 117.674667M512 896c-42.666667 0-88.234667-60.330667-117.674667-156.458667 37.418667 4.48 76.629333 7.125333 117.674667 7.125334 41.002667 0 80.256-2.645333 117.674667-7.125334C600.234667 835.669333 554.666667 896 512 896m-384-384c0-42.666667 60.330667-88.192 156.458667-117.674667A984.106667 984.106667 0 0 0 277.333333 512c0 41.045333 2.602667 80.213333 7.125334 117.674667C188.330667 600.234667 128 554.666667 128 512m533.333333 0c0 49.365333-4.138667 95.701333-11.093333 138.24-42.538667 6.954667-88.917333 11.093333-138.24 11.093333-49.322667 0-95.701333-4.138667-138.24-11.093333A857.216 857.216 0 0 1 362.666667 512c0-49.365333 4.138667-95.701333 11.093333-138.24 42.538667-6.954667 88.917333-11.093333 138.24-11.093333 49.322667 0 95.701333 4.138667 138.24 11.093333 6.954667 42.538667 11.093333 88.874667 11.093333 138.24M512 128c42.666667 0 88.234667 60.373333 117.674667 156.458667A983.808 983.808 0 0 0 512 277.333333c-41.002667 0-80.256 2.645333-117.674667 7.125334C423.765333 188.373333 469.333333 128 512 128m469.333333 384c0-95.274667-102.698667-173.653333-258.304-211.029333C685.696 145.365333 607.317333 42.666667 512 42.666667 416.682667 42.666667 338.304 145.365333 300.970667 300.970667 145.322667 338.346667 42.666667 416.725333 42.666667 512c0 95.317333 102.656 173.653333 258.304 211.029333C338.304 878.634667 416.682667 981.333333 512 981.333333c95.317333 0 173.696-102.698667 211.029333-258.304C878.634667 685.653333 981.333333 607.317333 981.333333 512" fill="#8BB3F1" p-id="5812"></path></svg>