<?xml version="1.0" standalone="no"?><!DOCTYPE svg PUBLIC "-//W3C//DTD SVG 1.1//EN" "http://www.w3.org/Graphics/SVG/1.1/DTD/svg11.dtd"><svg t="1695397763946" class="icon" viewBox="0 0 1024 1024" version="1.1" xmlns="http://www.w3.org/2000/svg" p-id="2711" xmlns:xlink="http://www.w3.org/1999/xlink" width="64" height="64"><path d="M768 896H298.666667c-117.632 0-213.333333-95.701333-213.333334-213.333333s95.701333-213.333333 213.333334-213.333334h170.666666v85.333334H298.666667c-70.570667 0-128 57.386667-128 128 0 70.570667 57.429333 128 128 128h469.333333v85.333333z m0-341.333333h-128v-85.333334h128c70.570667 0 128-57.386667 128-128 0-70.570667-57.429333-128-128-128H298.666667V128h469.333333c117.632 0 213.333333 95.701333 213.333333 213.333333s-95.701333 213.333333-213.333333 213.333334z" fill="#1768E4" p-id="2712"></path><path d="M234.666667 128a42.709333 42.709333 0 0 0 0 85.333333 42.709333 42.709333 0 0 0 0-85.333333z m0 170.666667c-70.613333 0-128-57.429333-128-128 0-70.613333 57.386667-128 128-128 70.570667 0 128 57.386667 128 128 0 70.570667-57.429333 128-128 128z m597.333333 512a42.709333 42.709333 0 0 0 0 85.333333 42.709333 42.709333 0 0 0 0-85.333333z m0 170.666666c-70.570667 0-128-57.429333-128-128s57.429333-128 128-128 128 57.429333 128 128-57.429333 128-128 128zM554.666667 469.333333a42.709333 42.709333 0 0 0 0 85.333334 42.709333 42.709333 0 0 0 0-85.333334z m0 170.666667c-70.613333 0-128-57.386667-128-128s57.386667-128 128-128 128 57.386667 128 128-57.386667 128-128 128z" fill="#8BB3F1" p-id="2713"></path></svg>