<?xml version="1.0" standalone="no"?><!DOCTYPE svg PUBLIC "-//W3C//DTD SVG 1.1//EN" "http://www.w3.org/Graphics/SVG/1.1/DTD/svg11.dtd"><svg t="1695213119094" class="icon" viewBox="0 0 1024 1024" version="1.1" xmlns="http://www.w3.org/2000/svg" p-id="5325" xmlns:xlink="http://www.w3.org/1999/xlink" width="32" height="32"><path d="M516.4 1023c-196.67 0-373.8-133.53-440.78-332.27a530.78 530.78 0 0 1-26.95-208.44c12.93-180.67 111-336.6 262.24-417.12C358.26 40 408.32 24 459.71 17.81 524 10 585.67 14.82 643.16 32c57.94 17.37 113 47.8 163.59 90.44 85 71.58 141.07 166 166.78 280.7 11.2 50 14.84 102.69 10.82 156.69-7.48 100.35-42.73 195.22-101.93 274.35-59 78.89-137.48 136.38-226.91 166.26A438.16 438.16 0 0 1 516.4 1023z m2.06-999a478.32 478.32 0 0 0-57.57 3.54c-50.19 6.06-99.1 21.63-145.38 46.26C167.22 152.73 71.12 305.7 58.43 483a521 521 0 0 0 26.46 204.61c65.65 194.75 239 325.61 431.48 325.63a428.34 428.34 0 0 0 136-22c177.91-59.47 307.39-233.1 322.23-432.09 4-53 0.39-104.79-10.61-153.82C938.76 292.79 883.73 200.15 800.45 130 716.82 59.51 622.18 24 518.46 24z" fill="#0659FF" p-id="5326"></path><path d="M293.05 515.31c-2.19 0-4.91-0.29-7-2.36-2.2-2.23-2.34-5.2-2.29-7.82A865.86 865.86 0 0 1 310 306.84c0.79-3.09 1.63-6.2 2.45-9.2 1-3.65 2-7.43 2.94-11.15 1.16-4.74 4.09-7.15 8.71-7.15 71.43 0.1 129.2 0.09 181.82 0a8.14 8.14 0 0 1 6.12 2.22c2.13 2.16 2.09 4.86 2.06 6.65v168.83c0 15.9 0 32.35 0.11 48.5 0 2.3-0.23 5.23-2.38 7.39s-4.69 2.35-7 2.35h-0.1c-27.6-0.1-55.67-0.09-82.81-0.08h-47.28c-26.7 0-54.3 0-81.45 0.12z m31.71-226.19c-0.92 3.73-1.94 7.47-2.92 11.08-0.81 3-1.64 6-2.41 9a856 856 0 0 0-25.85 196.06v0.22c27-0.14 54.49-0.13 81.06-0.11h47.22c27 0 55 0 82.53 0.08-0.15-16.17-0.13-32.59-0.11-48.47V413.21 289.09c-52 0.12-109.13 0.13-179.51 0.03zM504.87 757.14h-0.05c-52.47-0.12-108-0.13-180 0-5.22 0-8.31-2.4-9.74-7.55a851.34 851.34 0 0 1-27.37-148.34c-2-21-3.25-43.9-3.93-69.94-0.06-2.44 0.15-5.22 2.19-7.3s4.56-2.29 6.86-2.29c27.79 0.11 56 0.1 83.37 0.09h46.42c26.92 0 54.76 0 82.13-0.1 2.16 0 4.92 0.25 7 2.34s2.41 5 2.41 7.45c-0.11 69.27-0.11 139.85 0 215.77 0 2.67-0.28 5.44-2.4 7.55s-4.93 2.32-6.89 2.32z m-93-9.88c33.31 0 63.39 0 92.51 0.1v-0.11c-0.1-75.93-0.1-146.52 0-215.79-27.27 0.12-55 0.11-81.77 0.1H376.2c-27.08 0-55.07 0-82.63-0.09 0.68 25.63 1.95 48.15 3.88 68.83a841.61 841.61 0 0 0 27.05 146.63c0 0.15 0.08 0.27 0.11 0.38h0.21c31.86-0.03 60.48-0.06 87.04-0.06z" fill="#F39800" p-id="5327"></path><path d="M752.55 515.28c-6.12 0-9.25-3.14-9.32-9.34a866.25 866.25 0 0 0-30.76-218.4 9.33 9.33 0 0 1-0.29-2.06c0-0.21 0-0.45-0.05-0.75l-0.47-5.33H777c36.91 0 75.07 0 112.61-0.09 5 0 8.24 2 10.62 6.6a498.34 498.34 0 0 1 52.56 166.42c2.58 19.64 3.62 39 4.24 53.64 0.09 2.17-0.06 4.93-2.07 7-2.19 2.27-5.19 2.26-6.81 2.26-32.5-0.08-65.54-0.07-97.5-0.07h-41.58c-18.5 0-37.62 0-56.43 0.09zM723 289.19a875.74 875.74 0 0 1 30 216.31c18.7-0.11 37.7-0.09 56.08-0.08h41.56c31.65 0 64.37 0 96.57 0.06-0.62-14.34-1.65-33-4.12-51.87a488.6 488.6 0 0 0-51.53-163.16c-0.71-1.35-0.72-1.35-2-1.35-37.55 0.1-75.72 0.09-112.63 0.09z" fill="#0659FF" p-id="5328"></path><path d="M528.71 515.29c-1.8 0-4.81-0.12-7.05-2.35s-2.46-5.16-2.45-7.51c0.13-67.71 0.14-138.47 0-216.33 0-2.5 0.28-5.33 2.39-7.45s4.86-2.34 7-2.34c56.24 0.13 113.27 0.13 169.51 0 6.8 0 8.85 4.19 9.88 7.84a851.71 851.71 0 0 1 28.17 155.8c1.76 20.21 2.83 41.43 3.2 63.09 0 2.19-0.18 5-2.2 7s-4.47 2.23-6.68 2.24c-26.39-0.1-53.23-0.09-79.19-0.08H607c-25.56 0-52 0-78 0.09zM529 289.1c0.12 77.86 0.11 148.63 0 216.35v0.06c26-0.11 52.44-0.1 78-0.09h44.33c25.66 0 52.18 0 78.28 0.08-0.37-21.19-1.43-41.94-3.15-61.71a841.78 841.78 0 0 0-27.84-154c-0.08-0.29-0.15-0.52-0.21-0.69h-0.26c-56.15 0.12-113.03 0.13-169.15 0z" fill="#F39800" p-id="5329"></path><path d="M890.76 757.14c-45.5-0.1-91.78-0.1-136.52-0.1h-34.85a16.39 16.39 0 0 1-1.8-0.12l-1.07-0.11-5.75-0.51 1.44-5.59c5.21-20.2 10.66-41.76 14.95-63.73a851.75 851.75 0 0 0 15.08-124.66c0.43-9.69 0.77-20 1-31.54 0.13-6 3-9.1 8.61-9.1 62.46 0.11 126.88 0.12 196.93 0a8.15 8.15 0 0 1 6.15 2.18c2.15 2.2 2.06 5.2 2 6.8-2.18 78.14-21.19 152.08-56.51 219.75-1.16 2.36-3.42 6.73-9.66 6.73z m-125.54-9.89c41.31 0 83.74 0 125.54 0.1h0.24a14 14 0 0 0 0.84-1.46c34.47-66 53.09-138.17 55.38-214.41-69 0.1-132.53 0.1-194.15 0-0.26 11.42-0.59 21.66-1 31.29a861.57 861.57 0 0 1-15.25 126.1c-3.92 20.1-8.78 39.78-13.56 58.4h42z" fill="#0659FF" p-id="5330"></path><path d="M528.08 757.12a8.86 8.86 0 0 1-6.52-2.27c-2-2-2.32-4.74-2.32-7.11 0.1-84.05 0.09-152.94 0-216.79 0-2 0.24-4.89 2.35-7s5.17-2.23 7.1-2.23c26.51 0.07 53.48 0.06 79.55 0.06h43.38c25.89 0 52.66 0 79-0.09 2 0 4.64 0.24 6.62 2.24s2.24 4.72 2.2 7.07a862.77 862.77 0 0 1-31.24 218.38c-0.93 3.32-2.94 7.74-9.59 7.74-58.19-0.1-115.52-0.1-170.4 0z m0.92-225.63c0.12 63.6 0.13 132.21 0 215.84 54.61-0.1 111.63-0.1 169.51 0 0.05-0.15 0.11-0.35 0.18-0.59a852.85 852.85 0 0 0 30.87-215.27c-26 0.1-52.44 0.09-78 0.08H608.2c-25.96 0-52.8 0.01-79.2-0.06z" fill="#F39800" p-id="5331"></path><path d="M264.8 515.21H87.51c-3.9 0-6.72 0-8.93-2.28s-2.14-5.08-2-9.29C79 426.47 98 353.23 133.23 285.87c1.11-2.13 3.43-6.57 9.73-6.57 42.46 0.11 85.64 0.11 127.38 0.1h33c0.77 0 1.48 0 2.18 0.09l0.91 0.05 5.88 0.3-1.31 5.74q-1.72 7.2-3.47 14.36c-2.47 10.16-5 20.67-7.34 31a848.22 848.22 0 0 0-20.09 168.37c-0.13 6.57-0.21 10.18-2.81 13-2.8 2.9-6.44 2.9-12.49 2.9z m-178.49-9.79H264.8c2 0 4.05 0 5.18-0.12 0.19-1.31 0.24-3.87 0.29-6.18A858.1 858.1 0 0 1 290.6 328.8c2.34-10.42 4.9-21 7.38-31.17q1-4.21 2-8.44h-29.61c-41.76 0-84.94 0-127.41-0.1h-0.3a9.32 9.32 0 0 0-0.77 1.3c-34.52 66-53.21 137.85-55.54 213.44-0.01 0.54-0.03 1.09-0.04 1.59zM144 757.13c-5.38 0-8.78-2.12-11.36-7.08a498.14 498.14 0 0 1-51.12-158.7 573.33 573.33 0 0 1-5.18-61.09c0-1.08-0.17-4.36 2.17-6.65a7.72 7.72 0 0 1 6.29-1.87h114.78c23.1 0 47 0 70.46-0.11 6.53 0 9.79 3.18 9.89 9.85 0.36 26.11 1.93 52.7 4.66 79.05a869 869 0 0 0 24.3 131.85c1.44 5.44 2.31 8.73 0 11.69s-5.65 2.93-10.84 2.93H268.7c-40.85 0-83.1 0-124.64 0.09zM86.19 531.55a558 558 0 0 0 5 58.38 488.4 488.4 0 0 0 50.12 155.6c0.94 1.82 1.11 1.81 2.71 1.81 41.56-0.1 83.8-0.1 124.67-0.09H300c-0.19-0.74-0.4-1.56-0.61-2.33a878.87 878.87 0 0 1-24.57-133.34c-2.76-26.64-4.35-53.53-4.71-79.92v-0.21c-23.51 0.14-47.41 0.12-70.53 0.11H86.19zM601.66 984.9l6.45-10.55q5.16-8.45 10.43-16.92c7.58-12.23 15.41-24.89 22.78-37.57 26.39-45.39 48.08-95.42 64.46-148.71 2-6.66 5.8-9.46 12.6-9.47 44.26 0.16 89.46 0.15 133.17 0.14H895l-4.49 7.42c-33 54.58-73.29 100.17-119.64 135.51-45.69 34.83-98.62 60.69-157.31 76.88zM718 771.45c-2 0-2.09 0.13-2.83 2.56-16.6 54-38.59 104.73-65.35 150.76-7.44 12.8-15.31 25.51-22.92 37.8l-3.78 6.1C730.4 936.13 815.93 869.9 877.6 771.59h-26c-43.72 0-88.92 0-133.21-0.14zM716.3 274.51c-2.61 0-7.78-0.12-9.89-7A748.43 748.43 0 0 0 616.24 76c-2-3.05-3.91-6.18-5.76-9.21q-1.28-2.09-2.55-4.15L601.35 52l12 3.32c58.66 16.18 111.55 42 157.2 76.7 46.3 35.21 86.53 80.64 119.58 135l4.52 7.43H716.44z m-0.51-9.79h0.64q69.39-0.06 138.78 0h22c-61.67-97.92-147.14-163.94-254.3-196.44q0.75 1.19 1.52 2.35a758.21 758.21 0 0 1 91.34 194zM419.54 982.1l-12.3-3.78c-56-17.22-106.53-43.29-150-77.47C212.86 866 174.44 821.73 143 769.21l-4.43-7.4h168.12c2.5 0 7.78 0 9.8 6.72C336.43 834.91 366 898 407 961.47c1.48 2.29 2.85 4.59 4.18 6.81 0.58 1 1.14 1.91 1.7 2.83zM155.91 771.59c58.36 94 139.57 159 241.66 193.35-40.79-63.53-70.37-126.8-90.38-193.38h-0.48q-30.69 0.06-61.4 0z" fill="#0659FF" p-id="5332"></path><path d="M506 992.22h-1c-21.08-1.34-46-3.41-71.38-8.65a15 15 0 0 1-9.5-6.53C384.19 922.43 352 860.07 328.4 791.66c-1.76-5.1-3.48-10.21-5.29-15.57l-2.64-7.83-2.19-6.46h44c46.6 0 94.77 0 142.15-0.09 2.41 0 5.18 0.27 7.29 2.38s2.45 5.18 2.45 7.56c-0.13 71.25-0.1 143.21-0.06 210.8v0.36c0 2.17 0 5.15-2.34 7.37a8.29 8.29 0 0 1-5.77 2.04zM331.92 771.59l0.47 1.38c1.8 5.33 3.51 10.42 5.26 15.5 23.27 67.48 55 129 94.36 182.76 1.32 1.81 2.13 2.42 3.59 2.72 24.24 5 48.27 7.07 68.74 8.38 0-67.56-0.07-139.48 0.06-210.7v-0.14c-47.37 0.1-95.53 0.1-142.1 0.09z" fill="#F39800" p-id="5333"></path><path d="M307.46 274.57c-42-0.11-84.68-0.1-126-0.11h-32.09c-0.52 0-1 0-1.42-0.09l-0.61-0.05-7.88-0.61 4.07-6.78c31.3-52.19 69.61-96.25 113.84-131 43.45-34.08 93.87-60.11 149.84-77.34l12.2-3.76-6.57 10.95c-4 6.74-8.25 13.57-12.31 20.17-8 13-16.23 26.36-23.78 39.92-23.93 43-44.07 90.35-59.86 140.85-0.8 2.59-2.45 7.85-9.43 7.85z m-106.61-9.89c35.12 0 71 0 106.39 0.11 0.12-0.34 0.24-0.74 0.31-0.94 16-51.14 36.39-99.15 60.65-142.7 7.66-13.74 16-27.23 24-40.28C394 78 395.82 75 397.64 72c-102 34.38-183.11 99.14-241.29 192.69h44.5z" fill="#0659FF" p-id="5334"></path><path d="M506.2 274.54h-0.08c-44.61-0.07-90-0.08-133.84-0.08h-45.2a7.49 7.49 0 0 1-2.38-0.43l-0.43-0.13-5-1.33 1.63-4.94c5.31-16.09 11.14-33.34 17.82-50.45 22.14-56.73 50.38-109 83.94-155.28 3.78-5.21 8-8 13.74-9.09a537.67 537.67 0 0 1 69.11-8 8.39 8.39 0 0 1 6.36 1.92c2.3 2.18 2.3 5.3 2.3 6.8-0.06 64.42-0.07 133.86 0 212.29 0 1.68 0 4.48-2.14 6.62a8 8 0 0 1-5.83 2.1z m-174-9.88h40.13c43.28 0 88 0 132.05 0.08V54.65a524.19 524.19 0 0 0-66.17 7.74c-3.25 0.61-5.31 2-7.63 5.22-33.07 45.63-60.91 97.14-82.75 153.1-5.83 14.81-10.95 29.76-15.68 43.96zM526.73 992.17a7.44 7.44 0 0 1-5.42-2c-2.2-2.16-2.09-5-2-6.53v-0.71-100.14-111.23-0.74c0-1.84-0.11-4.62 2.07-6.84a8.41 8.41 0 0 1 6.27-2.28c43.28 0.11 87.29 0.11 129.86 0.11h38.27a13.17 13.17 0 0 1 1.91 0.17l0.91 0.12 6 0.7-2 5.73q-1.71 5-3.37 10c-2.35 7-4.78 14.21-7.29 21.24-23.79 66.46-55.67 127-94.76 179.82a14.74 14.74 0 0 1-9.72 6.39c-20.57 3.49-41.77 5-60 6.18z m2.35-220.67V982.27c18.19-1.17 37.48-2.64 56.81-5.92 1.21-0.21 2.08-0.66 3.49-2.56C627.9 921.67 659.33 862 682.8 796.46c2.48-6.94 4.79-13.8 7.23-21.06l1.28-3.8h-33.8c-42.09 0-85.6 0-128.43-0.1z m-1.84 0z m0 0zM528.87 274.57c-2.41 0-5.13-0.29-7.22-2.37s-2.45-5.18-2.44-7.56c0.13-67 0.13-137.58 0-209.87 0-1.9 0-5.44 2.55-7.84 2.23-2.09 5.11-2.18 7.37-2 20.91 1.44 38.34 2.78 56.36 5.8 4.09 0.69 8.37 2 12 6.84 43 58.27 77.37 126.15 102.14 201.76 0.42 1.29 0.86 2.57 1.3 3.85s0.81 2.36 1.21 3.55a6.3 6.3 0 0 1 0.23 2.73v0.37l-0.21 4.67H662c-43.61 0-88.72 0-133.07 0.09zM529 54.7v0.05c0.12 72.3 0.12 142.92 0 209.9v0.13c44.34-0.11 89.42-0.1 133-0.09h29.07q-0.4-1.17-0.79-2.34c-24.44-74.62-58.33-141.57-100.71-199-1.34-1.81-2.62-2.49-5.7-3-17.41-2.92-34.46-4.24-54.87-5.65z" fill="#F39800" p-id="5335"></path></svg>