<?xml version="1.0" standalone="no"?><!DOCTYPE svg PUBLIC "-//W3C//DTD SVG 1.1//EN" "http://www.w3.org/Graphics/SVG/1.1/DTD/svg11.dtd"><svg t="1695397937303" class="icon" viewBox="0 0 1024 1024" version="1.1" xmlns="http://www.w3.org/2000/svg" p-id="6104" xmlns:xlink="http://www.w3.org/1999/xlink" width="64" height="64"><path d="M853.333333 853.333333H170.666667v-170.666666h682.666666v170.666666z m0-512H170.666667V170.666667h682.666666v170.666666z m0 256H170.666667v-170.666666h682.666666v170.666666zM128 85.333333a42.666667 42.666667 0 0 0-42.666667 42.666667v768a42.666667 42.666667 0 0 0 42.666667 42.666667h768a42.666667 42.666667 0 0 0 42.666667-42.666667V128a42.666667 42.666667 0 0 0-42.666667-42.666667H128z" fill="#1768E4" p-id="6105"></path><path d="M640 298.666667V213.333333h170.666667v85.333334h-170.666667zM213.333333 298.666667V213.333333h85.333334v85.333334H213.333333z m426.666667 256v-85.333334h170.666667v85.333334h-170.666667zM213.333333 554.666667v-85.333334h85.333334v85.333334H213.333333z m426.666667 256v-85.333334h170.666667v85.333334h-170.666667zM213.333333 810.666667v-85.333334h85.333334v85.333334H213.333333z" fill="#8BB3F1" p-id="6106"></path></svg>