<?xml version="1.0" standalone="no"?><!DOCTYPE svg PUBLIC "-//W3C//DTD SVG 1.1//EN" "http://www.w3.org/Graphics/SVG/1.1/DTD/svg11.dtd"><svg t="1695397848167" class="icon" viewBox="0 0 1185 1024" version="1.1" xmlns="http://www.w3.org/2000/svg" p-id="4487" xmlns:xlink="http://www.w3.org/1999/xlink" width="74.0625" height="64"><path d="M896 810.666667v-362.666667h-85.333333V810.666667h-85.333334v-298.666667h-85.333333v298.666667h-85.333333V362.666667h-85.333334V810.666667H384V213.333333H298.666667v597.333334H213.333333v-298.666667H128v298.666667H42.666667v85.333333h938.666666v-85.333333z" fill="#1768E4" p-id="4488"></path><path d="M170.666667 469.333333a42.666667 42.666667 0 1 1 0-85.333333 42.666667 42.666667 0 0 1 0 85.333333z m170.666666-298.666666a42.666667 42.666667 0 1 1 0-85.333334 42.666667 42.666667 0 0 1 0 85.333334z m170.666667 149.333333a42.666667 42.666667 0 1 1 0-85.333333 42.666667 42.666667 0 0 1 0 85.333333z m170.666667 149.333333a42.666667 42.666667 0 1 1 0-85.333333 42.666667 42.666667 0 0 1 0 85.333333z m170.666666-64a42.666667 42.666667 0 1 1 0-85.333333 42.666667 42.666667 0 0 1 0 85.333333z" fill="#8BB3F1" p-id="4489"></path></svg>