<?xml version="1.0" standalone="no"?><!DOCTYPE svg PUBLIC "-//W3C//DTD SVG 1.1//EN" "http://www.w3.org/Graphics/SVG/1.1/DTD/svg11.dtd"><svg t="1713430304614" class="icon" viewBox="0 0 1024 1024" version="1.1" xmlns="http://www.w3.org/2000/svg" p-id="7504" width="64" height="64" xmlns:xlink="http://www.w3.org/1999/xlink"><path d="M512 229.034667c82.310095 0 157.793524 29.135238 216.746667 77.628952l-52.028953 52.053333A267.044571 267.044571 0 0 0 512 302.153143c-148.114286 0-268.190476 120.100571-268.190476 268.190476 0 148.138667 120.07619 268.190476 268.190476 268.190476s268.190476-120.05181 268.190476-268.190476c0-14.750476-1.194667-29.257143-3.486476-43.398095l60.513524-60.513524c10.48381 32.768 16.11581 67.705905 16.115809 103.936 0 188.513524-152.81981 341.333333-341.333333 341.333333s-341.333333-152.81981-341.333333-341.333333 152.81981-341.333333 341.333333-341.333333zM808.374857 307.2l51.492572 51.95581-312.076191 309.345523-143.969524-143.969523 51.736381-51.712 92.452572 92.452571 260.388571-258.072381zM636.123429 109.714286v77.58019H377.539048V109.714286H636.099048z" p-id="7505" fill="#1296db"></path></svg>