<?xml version="1.0" standalone="no"?><!DOCTYPE svg PUBLIC "-//W3C//DTD SVG 1.1//EN" "http://www.w3.org/Graphics/SVG/1.1/DTD/svg11.dtd"><svg t="1695735991708" class="icon" viewBox="0 0 1126 1024" version="1.1" xmlns="http://www.w3.org/2000/svg" p-id="3051" xmlns:xlink="http://www.w3.org/1999/xlink" width="70.375" height="64"><path d="M426.666667 512h85.333333V228.778667c36.608-17.408 129.92-52.309333 298.666667-57.472V512h85.333333V128a42.666667 42.666667 0 0 0-42.666667-42.666667c-217.002667 0-336.384 45.525333-384 69.376C421.717333 130.858667 302.378667 85.333333 85.333333 85.333333a42.666667 42.666667 0 0 0-42.666666 42.666667v585.770667a42.666667 42.666667 0 0 0 42.666666 42.666666c152.832 0 250.538667 23.509333 305.621334 43.264l28.8-80.341333C363.776 699.306667 269.226667 675.712 128 671.701333V171.306667c169.002667 5.12 262.357333 40.106667 298.666667 57.472V512z" fill="#1768E4" p-id="3052"></path><path d="M512 597.333333h213.333333v341.333334h-213.333333v-85.333334h128v-42.666666h-128v-85.333334h128v-42.666666h-128v-85.333334z m341.333333 256h42.666667v-170.666666h-42.666667v170.666666z m42.666667-256h85.333333v341.333334h-213.333333v-341.333334h128z" fill="#8BB3F1" p-id="3053"></path></svg>