<?xml version="1.0" standalone="no"?><!DOCTYPE svg PUBLIC "-//W3C//DTD SVG 1.1//EN" "http://www.w3.org/Graphics/SVG/1.1/DTD/svg11.dtd"><svg t="1695735683204" class="icon" viewBox="0 0 1024 1024" version="1.1" xmlns="http://www.w3.org/2000/svg" p-id="2904" xmlns:xlink="http://www.w3.org/1999/xlink" width="64" height="64"><path d="M533.333333 896c176.469333 0 320-143.530667 320-320S709.802667 256 533.333333 256 213.333333 399.530667 213.333333 576 356.864 896 533.333333 896z m401.408-325.845333c0 97.024-34.901333 186.026667-92.757333 255.274666L938.666667 921.856 879.018667 981.333333l-97.621334-97.450666a398.848 398.848 0 0 1-495.317333-0.768L187.605333 981.333333 128 921.856l97.621333-97.365333a397.056 397.056 0 0 1-91.861333-254.293334C133.76 349.866667 313.386667 170.666667 534.186667 170.666667c220.842667 0 400.512 179.2 400.512 399.488zM296.448 146.602667L145.706667 297.429333 85.333333 237.098667l150.826667-150.826667L296.533333 146.602667z m682.666667 89.557333l-60.288 60.288L768 145.664 828.330667 85.333333l150.826666 150.826667z" fill="#1768E4" p-id="2905"></path><path d="M635.946667 704V426.666667h85.333333v277.333333h-85.333333z m-217.344-128H469.333333l-16-64h-18.730666l-16 64z m68.010666-149.333333a42.666667 42.666667 0 0 1 41.386667 32.298666l61.269333 244.992h-87.978666l-10.666667-42.666666H397.269333l-10.666666 42.666666H298.666667l61.226666-244.992a42.666667 42.666667 0 0 1 41.386667-32.298666h85.333333z" fill="#8BB3F1" p-id="2906"></path></svg>