<?xml version="1.0" standalone="no"?><!DOCTYPE svg PUBLIC "-//W3C//DTD SVG 1.1//EN" "http://www.w3.org/Graphics/SVG/1.1/DTD/svg11.dtd"><svg t="1695397829517" class="icon" viewBox="0 0 1024 1024" version="1.1" xmlns="http://www.w3.org/2000/svg" p-id="4034" xmlns:xlink="http://www.w3.org/1999/xlink" width="64" height="64"><path d="M640 312.234667c-35.413333 18.346667-79.573333 29.098667-128 29.098666-48.384 0-92.586667-10.752-128-29.098666V362.666667H298.666667v-170.666667C298.666667 108.288 392.405333 42.666667 512 42.666667c119.637333 0 213.333333 65.621333 213.333333 149.333333v170.666667h-85.333333V312.234667z m85.333333-119.253334V192h-85.333333v0c0-30.208-54.741333-64-128-64s-128 33.792-128 64S438.741333 256 512 256c72.874667 0 127.445333-33.450667 128-63.573333zM505.258667 682.666667c-28.8 0-57.557333-1.322667-85.333334-3.882667l23.296-84.266667c40.32 3.754667 83.797333 3.754667 124.074667 0l23.296 84.266667c-27.776 2.56-56.533333 3.882667-85.333333 3.882667z" fill="#8BB3F1" p-id="4035"></path><path d="M256 512c73.258667 0 128-33.792 128-64S329.258667 384 256 384s-128 33.792-128 64S182.741333 512 256 512z m85.333333 345.002667c26.453333-12.544 42.666667-29.909333 42.666667-46.336v-242.645334c-13.098667 6.826667-27.349333 12.672-42.666667 17.237334v271.744zM128 810.666667c0 30.208 54.741333 64 128 64V597.333333c-48.469333 0-92.544-10.922667-128-29.312V810.666667zM256 298.666667c119.594667 0 213.333333 65.578667 213.333333 149.333333V810.666667c0 83.712-93.738667 149.333333-213.333333 149.333333-119.637333 0-213.333333-65.621333-213.333333-149.333333v-362.666667C42.666667 364.245333 136.362667 298.666667 256 298.666667z m597.333333 558.336c26.453333-12.544 42.666667-29.909333 42.666667-46.336v-242.645334c-13.141333 6.826667-27.349333 12.672-42.666667 17.237334v271.744zM640 810.666667c0 30.208 54.741333 64 128 64V597.333333c-48.469333 0-92.544-10.922667-128-29.312V810.666667z m128-426.666667c-73.258667 0-128 33.792-128 64s54.741333 64 128 64 128-33.792 128-64S841.258667 384 768 384z m0-85.333333c119.594667 0 213.333333 65.578667 213.333333 149.333333V810.666667c0 83.712-93.738667 149.333333-213.333333 149.333333s-213.333333-65.621333-213.333333-149.333333v-362.666667C554.666667 364.245333 648.405333 298.666667 768 298.666667z" fill="#1768E4" p-id="4036"></path></svg>