<?xml version="1.0" standalone="no"?><!DOCTYPE svg PUBLIC "-//W3C//DTD SVG 1.1//EN" "http://www.w3.org/Graphics/SVG/1.1/DTD/svg11.dtd"><svg t="1695397785956" class="icon" viewBox="0 0 1072 1024" version="1.1" xmlns="http://www.w3.org/2000/svg" p-id="3152" xmlns:xlink="http://www.w3.org/1999/xlink" width="67" height="64"><path d="M256 426.666667V341.333333h425.130667v85.333334H256z m0 170.666666v-85.333333h298.666667v85.333333H256z m0-384V85.333333h85.333333v128H256z m341.333333 0V85.333333h85.333334v128h-85.333334z m170.666667 277.333334V213.333333h-42.666667V128h85.333334a42.666667 42.666667 0 0 1 42.666666 42.666667v320h-85.333333zM384 213.333333V128h170.666667v85.333333H384zM170.666667 213.333333v640h341.333333v85.333334H128a42.666667 42.666667 0 0 1-42.666667-42.666667V170.666667a42.666667 42.666667 0 0 1 42.666667-42.666667h85.333333v85.333333H170.666667z" fill="#1768E4" p-id="3153"></path><path d="M927.018667 625.834667l59.648-7.466667-10.581334-84.693333-181.333333 22.656h-0.085333l-26.624 3.370666V725.333333h85.333333v-52.053333c3.413333 3.072 7.082667 6.016 10.24 9.557333 20.906667 23.466667 32.426667 53.674667 32.426667 85.162667 0 70.570667-57.429333 128-128 128-70.613333 0-128-57.429333-128-128 0-46.165333 25.002667-88.917333 65.28-111.616l-41.898667-74.368A213.845333 213.845333 0 0 0 554.666667 768.042667c0 117.632 95.701333 213.333333 213.333333 213.333333s213.333333-95.701333 213.333333-213.333333a212.906667 212.906667 0 0 0-54.101333-141.952l-0.256-0.256z" fill="#8BB3F1" p-id="3154"></path></svg>