<?xml version="1.0" standalone="no"?><!DOCTYPE svg PUBLIC "-//W3C//DTD SVG 1.1//EN" "http://www.w3.org/Graphics/SVG/1.1/DTD/svg11.dtd"><svg t="1695397799540" class="icon" viewBox="0 0 1024 1024" version="1.1" xmlns="http://www.w3.org/2000/svg" p-id="3446" xmlns:xlink="http://www.w3.org/1999/xlink" width="64" height="64"><path d="M170.666667 128v640h234.666666v85.333333H128a42.666667 42.666667 0 0 1-42.666667-42.666666V85.333333a42.666667 42.666667 0 0 1 42.666667-42.666666h682.666667a42.666667 42.666667 0 0 1 42.666666 42.666666v320h-85.333333V128H170.666667z m85.333333 170.666667V213.333333h426.666667v85.333334H256z m0 170.666666V384h277.333333v85.333333H256z" fill="#1768E4" p-id="3447"></path><path d="M896 896h-341.333333v-170.666667h128v42.666667h85.333333v-42.666667h128v170.666667z m-293.632-298.666667H682.666667v42.666667h-101.632l21.333333-42.666667z m267.264 42.666667H768v-42.666667h80.298667l21.333333 42.666667z m110.762667 33.92l-0.085334-0.341333a43.264 43.264 0 0 0-3.114666-8.96l-0.341334-1.024-64-128A42.666667 42.666667 0 0 0 874.666667 512h-298.666667a42.666667 42.666667 0 0 0-38.186667 23.594667l-64 128c-0.170667 0.298667-0.213333 0.682667-0.341333 0.981333a43.264 43.264 0 0 0-3.114667 9.002667l-0.085333 0.341333A43.776 43.776 0 0 0 469.333333 682.666667v256a42.666667 42.666667 0 0 0 42.666667 42.666666h426.666667a42.666667 42.666667 0 0 0 42.666666-42.666666v-256c0-2.986667-0.341333-5.930667-0.896-8.746667z" fill="#8BB3F1" p-id="3448"></path></svg>