<?xml version="1.0" standalone="no"?><!DOCTYPE svg PUBLIC "-//W3C//DTD SVG 1.1//EN" "http://www.w3.org/Graphics/SVG/1.1/DTD/svg11.dtd"><svg t="1695397836674" class="icon" viewBox="0 0 1024 1024" version="1.1" xmlns="http://www.w3.org/2000/svg" p-id="4181" xmlns:xlink="http://www.w3.org/1999/xlink" width="64" height="64"><path d="M810.666667 896H213.333333V128h597.333334v768z m42.666666-853.333333H170.666667a42.666667 42.666667 0 0 0-42.666667 42.666666v853.333334a42.666667 42.666667 0 0 0 42.666667 42.666666h682.666666a42.666667 42.666667 0 0 0 42.666667-42.666666V85.333333a42.666667 42.666667 0 0 0-42.666667-42.666666z" fill="#1768E4" p-id="4182"></path><path d="M640 768v-128h85.333333v128h-85.333333z m-341.333333 0v-234.666667h85.333333V768H298.666667z m170.666666 0V384h85.333334v384h-85.333334z m-128-277.333333a42.666667 42.666667 0 1 1 0-85.333334 42.666667 42.666667 0 0 1 0 85.333334z m341.333334 106.666666a42.666667 42.666667 0 1 1 0-85.333333 42.666667 42.666667 0 0 1 0 85.333333z m-192-261.717333a42.666667 42.666667 0 1 1 42.666666-73.898667 42.666667 42.666667 0 0 1-42.666666 73.898667z" fill="#8BB3F1" p-id="4183"></path></svg>