<?xml version="1.0" standalone="no"?><!DOCTYPE svg PUBLIC "-//W3C//DTD SVG 1.1//EN" "http://www.w3.org/Graphics/SVG/1.1/DTD/svg11.dtd"><svg t="1695397862300" class="icon" viewBox="0 0 1075 1024" version="1.1" xmlns="http://www.w3.org/2000/svg" p-id="4781" xmlns:xlink="http://www.w3.org/1999/xlink" width="67.1875" height="64"><path d="M814.08 853.333333H167.253333l-35.541333-426.666666h717.909333l-35.541333 426.666666zM687.488 341.333333H293.845333l14.208-42.666666h365.226667l14.208 42.666666zM220.416 170.666667h540.501333L832 341.333333h-54.613333l-32.896-98.816A42.666667 42.666667 0 0 0 704 213.333333h-426.666667a42.666667 42.666667 0 0 0-40.533333 29.184L203.946667 341.333333h-54.613334l71.125334-170.666666zM938.24 378.197333c-0.085333-0.853333-0.384-1.621333-0.554667-2.432a43.136 43.136 0 0 0-1.962666-7.04l-0.298667-1.152-106.666667-256A42.666667 42.666667 0 0 0 789.333333 85.333333h-597.333333a42.666667 42.666667 0 0 0-39.381333 26.24l-106.666667 256c-0.170667 0.426667-0.170667 0.810667-0.341333 1.152a43.093333 43.093333 0 0 0-1.92 7.04c-0.170667 0.810667-0.469333 1.578667-0.597334 2.432a41.386667 41.386667 0 0 0-0.298666 9.386667l42.666666 512A42.666667 42.666667 0 0 0 128 938.666667h725.333333a42.666667 42.666667 0 0 0 42.538667-39.125334l42.666667-512a40.192 40.192 0 0 0-0.341334-9.344z" fill="#1768E4" p-id="4782"></path><path d="M448 768a42.496 42.496 0 0 1-30.165333-12.501333l-106.666667-106.666667 60.330667-60.330667 76.501333 76.501334 183.168-183.168 60.330667 60.330666-213.333334 213.333334A42.496 42.496 0 0 1 448 768" fill="#8BB3F1" p-id="4783"></path></svg>