<?xml version="1.0" standalone="no"?><!DOCTYPE svg PUBLIC "-//W3C//DTD SVG 1.1//EN" "http://www.w3.org/Graphics/SVG/1.1/DTD/svg11.dtd"><svg t="1695397891591" class="icon" viewBox="0 0 1185 1024" version="1.1" xmlns="http://www.w3.org/2000/svg" p-id="5222" xmlns:xlink="http://www.w3.org/1999/xlink" width="74.0625" height="64"><path d="M896 853.333333H298.666667V384h597.333333v469.333333zM128 682.666667V213.333333h597.333333v85.333334H256a42.666667 42.666667 0 0 0-42.666667 42.666666v341.333334H128z m682.666667-384V170.666667a42.666667 42.666667 0 0 0-42.666667-42.666667H85.333333a42.666667 42.666667 0 0 0-42.666666 42.666667v554.666666a42.666667 42.666667 0 0 0 42.666666 42.666667h128v128a42.666667 42.666667 0 0 0 42.666667 42.666667h682.666667a42.666667 42.666667 0 0 0 42.666666-42.666667V341.333333a42.666667 42.666667 0 0 0-42.666666-42.666666h-128z" fill="#1768E4" p-id="5223"></path><path d="M595.669333 671.744a42.453333 42.453333 0 0 0 19.669334-4.821333l234.666666-121.898667L810.666667 469.333333l-214.997334 111.658667L380.672 469.333333 341.333333 545.024l234.666667 121.898667a42.453333 42.453333 0 0 0 19.669333 4.821333" fill="#8BB3F1" p-id="5224"></path></svg>