<?xml version="1.0" standalone="no"?><!DOCTYPE svg PUBLIC "-//W3C//DTD SVG 1.1//EN" "http://www.w3.org/Graphics/SVG/1.1/DTD/svg11.dtd"><svg t="1695397901304" class="icon" viewBox="0 0 1024 1024" version="1.1" xmlns="http://www.w3.org/2000/svg" p-id="5369" xmlns:xlink="http://www.w3.org/1999/xlink" width="64" height="64"><path d="M213.333333 749.44l320 142.506667 320-142.506667V274.56l-320-142.506667L213.333333 274.56v474.88zM533.333333 981.333333a42.325333 42.325333 0 0 1-17.322666-3.669333l-362.666667-161.536A42.666667 42.666667 0 0 1 128 777.173333V246.826667a42.666667 42.666667 0 0 1 25.344-38.954667l362.666667-161.493333a42.538667 42.538667 0 0 1 34.688 0l362.666666 161.493333a42.666667 42.666667 0 0 1 25.301334 38.997333v530.304a42.666667 42.666667 0 0 1-25.301334 38.954667l-362.666666 161.536A42.325333 42.325333 0 0 1 533.333333 981.333333z" fill="#1768E4" p-id="5370"></path><path d="M576 454.144l209.621333-95.317333-35.242666-77.653334L533.333333 379.818667 316.288 281.173333l-35.285333 77.653334 209.664 95.317333v115.754667L281.045333 665.173333l35.285334 77.653334L533.333333 644.266667l217.045334 98.602666 35.242666-77.653333-209.621333-95.274667z" fill="#8BB3F1" p-id="5371"></path></svg>