<?xml version="1.0" standalone="no"?><!DOCTYPE svg PUBLIC "-//W3C//DTD SVG 1.1//EN" "http://www.w3.org/Graphics/SVG/1.1/DTD/svg11.dtd"><svg t="1695397915951" class="icon" viewBox="0 0 1024 1024" version="1.1" xmlns="http://www.w3.org/2000/svg" p-id="5663" xmlns:xlink="http://www.w3.org/1999/xlink" width="64" height="64"><path d="M853.333333 640H170.666667V170.666667h682.666666v469.333333z m42.666667-554.666667H128a42.666667 42.666667 0 0 0-42.666667 42.666667v554.666667a42.666667 42.666667 0 0 0 42.666667 42.666666h281.002667l-204.501334 204.501334 60.330667 60.330666L469.333333 785.664V917.333333h85.333334v-131.669333l204.501333 204.501333 60.330667-60.330666L614.997333 725.333333H896a42.666667 42.666667 0 0 0 42.666667-42.666666V128a42.666667 42.666667 0 0 0-42.666667-42.666667z" fill="#1768E4" p-id="5664"></path><path d="M469.333333 457.856L380.842667 375.168l-64.512 60.330667 159.744 149.333333c17.792 16.64 46.72 16.64 64.512 0l159.744-149.333333-64.512-60.330667L554.666667 451.029333V256h-85.333334v201.856z" fill="#8BB3F1" p-id="5665"></path></svg>