<?xml version="1.0" standalone="no"?><!DOCTYPE svg PUBLIC "-//W3C//DTD SVG 1.1//EN" "http://www.w3.org/Graphics/SVG/1.1/DTD/svg11.dtd"><svg t="1695397928994" class="icon" viewBox="0 0 1126 1024" version="1.1" xmlns="http://www.w3.org/2000/svg" p-id="5957" xmlns:xlink="http://www.w3.org/1999/xlink" width="70.375" height="64"><path d="M85.333333 86.869333h640a42.666667 42.666667 0 0 1 42.666667 42.666667v213.333333h-85.333333v-170.666666H128v640h85.333333v85.333333H85.333333a42.666667 42.666667 0 0 1-42.666666-42.666667v-725.333333a42.666667 42.666667 0 0 1 42.666666-42.666667z m213.333334 213.333334v-85.333334h213.333333v85.333334H298.666667z" fill="#1768E4" p-id="5958"></path><path d="M384 854.869333h512v-384H384v384z m-42.666667-469.333333h597.333334a42.666667 42.666667 0 0 1 42.666666 42.666667v469.333333a42.666667 42.666667 0 0 1-42.666666 42.666667H341.333333a42.666667 42.666667 0 0 1-42.666666-42.666667v-469.333333a42.666667 42.666667 0 0 1 42.666666-42.666667z m426.666667 426.666667h-256l-0.256-107.221334c33.664-12.8 91.050667-20.565333 128.085333-20.736 37.034667-0.213333 94.165333 7.082667 127.914667 19.456L768 812.202667z m-128-149.333334a64 64 0 1 1 0-128 64 64 0 0 1 0 128z" fill="#8BB3F1" p-id="5959"></path></svg>