<?xml version="1.0" standalone="no"?><!DOCTYPE svg PUBLIC "-//W3C//DTD SVG 1.1//EN" "http://www.w3.org/Graphics/SVG/1.1/DTD/svg11.dtd"><svg t="1695397793581" class="icon" viewBox="0 0 1072 1024" version="1.1" xmlns="http://www.w3.org/2000/svg" p-id="3299" xmlns:xlink="http://www.w3.org/1999/xlink" width="67" height="64"><path d="M256 426.666667V341.333333h425.130667v85.333334H256z m0 170.666666v-85.333333h298.666667v85.333333H256z m0-384V85.333333h85.333333v128H256z m341.333333 0V85.333333h85.333334v128h-85.333334z m170.666667 277.333334V213.333333h-42.666667V128h85.333334a42.666667 42.666667 0 0 1 42.666666 42.666667v320h-85.333333zM384 213.333333V128h170.666667v85.333333H384zM170.666667 213.333333v640h469.333333v85.333334H128a42.666667 42.666667 0 0 1-42.666667-42.666667V170.666667a42.666667 42.666667 0 0 1 42.666667-42.666667h85.333333v85.333333H170.666667z" fill="#1768E4" p-id="3300"></path><path d="M991.658667 716.544l-150.826667-150.869333a42.624 42.624 0 0 0-60.330667 0l-150.869333 150.869333 60.330667 60.288 78.08-77.994667V981.333333H853.333333v-282.453333l77.994667 77.952 60.330667-60.288z" fill="#8BB3F1" p-id="3301"></path></svg>