<?xml version="1.0" standalone="no"?><!DOCTYPE svg PUBLIC "-//W3C//DTD SVG 1.1//EN" "http://www.w3.org/Graphics/SVG/1.1/DTD/svg11.dtd"><svg t="1695216846923" class="icon" viewBox="0 0 1024 1024" version="1.1" xmlns="http://www.w3.org/2000/svg" p-id="8301" width="64" height="64" xmlns:xlink="http://www.w3.org/1999/xlink"><path d="M864.9 626.1C875.6 591 881 554.5 881 517.4c0-161.8-107.2-307.3-261.2-355.4-3.9-54.3-49.3-97.2-104.6-97.2-53.9 0-98.4 40.9-104.2 93.3-0.2 0-0.4 0.1-0.5 0.1-161.4 44-274.1 191.8-274.1 359.2 0 38.8 6 77.1 17.7 113.7-18.6 18.9-30 44.8-30 73.4 0 57.8 47 104.9 104.9 104.9 13.9 0 27.2-2.7 39.3-7.7 67.1 56.8 152.3 88.1 240.5 88.1 89 0 175.1-31.9 242.5-89.8l0.3-0.3c13.3 6.2 28.2 9.6 43.9 9.6 57.8 0 104.8-47 104.8-104.9-0.1-31.1-13.8-59.1-35.4-78.3zM515.3 113.8c30.8 0 55.8 25 55.8 55.8 0 30.8-25 55.8-55.8 55.8-30.8 0-55.8-25-55.8-55.8 0-30.7 25-55.8 55.8-55.8zM173.1 704.5c0-30.8 25-55.8 55.8-55.8 30.8 0 55.8 25 55.8 55.8 0 30.8-25 55.8-55.8 55.8-30.8 0-55.8-25.1-55.8-55.8z m136.1 67.3c15.3-18.2 24.5-41.7 24.5-67.3 0-57.8-47-104.8-104.8-104.8-11 0-21.6 1.7-31.6 4.9-7.9-28.2-11.8-57.4-11.8-87.1 0-143.3 95.1-270 232-310.2 15.1 39.3 53.3 67.2 97.9 67.2 43.2 0 80.3-26.2 96.4-63.6C741.9 254.7 832 379.3 832 517.4c0 29-3.8 57.6-11.4 85.3-8.1-2-16.6-3.1-25.3-3.1-57.8 0-104.8 47-104.8 104.8 0 24.1 8.2 46.3 21.9 64-57.4 46.7-129.4 72.3-203.7 72.3-72.5 0-142.8-24.3-199.5-68.9z m486.2-11.5c-30.8 0-55.8-25-55.8-55.8 0-30.8 25-55.8 55.8-55.8 30.8 0 55.8 25 55.8 55.8 0 30.7-25.1 55.8-55.8 55.8z" fill="#D6473B" p-id="8302"></path><path d="M280.9 648.7c-3.9 0-7.9-0.9-11.5-2.9-11.9-6.4-16.5-21.2-10.1-33.2l200-374.2c6.4-11.9 21.2-16.5 33.2-10.1 11.9 6.4 16.5 21.2 10.1 33.2l-200 374.2c-4.4 8.3-12.9 13-21.7 13zM715 712.8H307.6c-13.5 0-24.5-11-24.5-24.5s11-24.5 24.5-24.5H715c13.5 0 24.5 11 24.5 24.5s-10.9 24.5-24.5 24.5zM754.6 648.7c-8.7 0-17.1-4.6-21.5-12.7L528.2 261.7c-6.5-11.9-2.1-26.8 9.7-33.3 11.9-6.6 26.8-2.2 33.3 9.7L776 612.4c6.5 11.9 2.1 26.8-9.7 33.3-3.7 2-7.8 3-11.7 3z" fill="#D6473B" opacity=".5" p-id="8303"></path></svg>